Coordinates
version=1
nRows=6
nColumns=46
inDegrees=yes

Units are S.I. units (second, meters, Newtons, ...)
Angles are in degrees.

endheader
time	pelvis_tilt	pelvis_list	pelvis_rotation	pelvis_tx	pelvis_ty	pelvis_tz	bb_angle	bb_tx	bb_ty	bb_tz	hip_flexion_r	hip_adduction_r	hip_rotation_r	knee_angle_r	knee_angle_r_beta	ankle_angle_r	subtalar_angle_r	mtp_angle_r	crank_angle_r	hip_flexion_l	hip_adduction_l	hip_rotation_l	knee_angle_l	knee_angle_l_beta	ankle_angle_l	subtalar_angle_l	mtp_angle_l	crank_angle_l	lumbar_extension	lumbar_bending	lumbar_rotation	arm_flex_r	arm_add_r	arm_rot_r	elbow_flex_r	pro_sup_r	wrist_flex_r	wrist_dev_r	arm_flex_l	arm_add_l	arm_rot_l	elbow_flex_l	pro_sup_l	wrist_flex_l	wrist_dev_l
      7.50500000	    -29.37903867	      1.81250863	    -12.29852434	      0.31353233	      1.17495582	     -0.27742504	      0.00000000	      0.50000000	      0.00000000	      0.25000000	     64.22983419	      1.79652873	      2.66938289	     58.44638464	      1.02008185	      3.28614718	     -4.85492207	      0.00000000	      0.00000000	     53.26259717	     -6.83690696	      0.73841626	     70.38584413	      1.22846473	    -36.40063979	    -10.61429478	      0.00000000	      0.00000000	    -63.91462926	     -7.08181128	     11.03235388	     50.49907182	    -40.96135408	     15.68266020	    104.22428035	     52.45107328	      0.00000000	      0.00000000	     51.88716448	    -18.42559781	     19.58335010	     92.56178370	     50.70804080	      0.00000000	      0.00000000
      7.51000000	    -29.23541277	      2.61255987	    -11.61109557	      0.31375141	      1.17319570	     -0.27744867	      0.00000000	      0.50000000	      0.00000000	      0.25000000	     62.82381490	      0.94518045	      3.37705271	     56.01865248	      0.97770993	      2.75257280	     -4.80139097	      0.00000000	      0.00000000	     54.32962555	     -5.88439014	      0.48471142	     72.78241229	      1.27029273	    -35.55576511	    -10.93575049	      0.00000000	      0.00000000	    -63.74809706	     -7.20953737	     10.11809984	     50.13964944	    -41.16841301	     15.61970069	    104.23378844	     52.45139446	      0.00000000	      0.00000000	     51.85269379	    -18.21895890	     19.72894224	     92.45262804	     50.70797970	      0.00000000	      0.00000000
      7.51500000	    -29.36215442	      3.19237559	    -10.80126547	      0.31399099	      1.17084461	     -0.27765730	      0.00000000	      0.50000000	      0.00000000	      0.25000000	     61.59549059	      0.15028442	      3.72870214	     53.51353729	      0.93398742	      1.64629875	     -5.83070559	      0.00000000	      0.00000000	     55.70451868	     -5.08934680	      0.46897266	     75.33914963	      1.31491622	    -33.78359115	    -10.69096885	      0.00000000	      0.00000000	    -63.21690979	     -7.31706815	     11.23393360	     46.71915113	    -43.24494230	     12.43401560	    105.86878457	     52.41719506	      0.00000000	      0.00000000	     53.21064624	    -16.29746148	     21.63406726	     90.24340621	     50.67218829	      0.00000000	      0.00000000
      7.52000000	    -29.24206614	      3.90524021	     -9.87470712	      0.31425151	      1.16871464	     -0.27765668	      0.00000000	      0.50000000	      0.00000000	      0.25000000	     60.12894229	     -0.84839690	      4.22688914	     51.09902999	      0.89184632	      0.74510398	     -6.12270150	      0.00000000	      0.00000000	     56.81671402	     -4.16601427	      0.23012274	     77.81329262	      1.35809816	    -32.22667943	    -10.83011078	      0.00000000	      0.00000000	    -62.95378550	     -7.18078329	     10.35361876	     46.03612085	    -43.44776236	     12.44744119	    105.82665479	     52.42192159	      0.00000000	      0.00000000	     53.19402242	    -16.20073358	     21.92091461	     90.01889752	     50.67459935	      0.00000000	      0.00000000
      7.52500000	    -29.24781952	      4.44548475	     -8.84587453	      0.31440283	      1.16624171	     -0.27752012	      0.00000000	      0.50000000	      0.00000000	      0.25000000	     58.69418968	     -1.73806308	      4.59593932	     48.66934524	      0.84944032	     -0.32137859	     -7.19821231	      0.00000000	      0.00000000	     58.11247883	     -3.34074445	      0.25523563	     80.35361427	      1.40243513	    -30.34145861	    -10.26658842	      0.00000000	      0.00000000	    -62.58009127	     -7.00709037	      9.75865131	     45.00934874	    -43.94783333	     12.10525344	    105.87294726	     52.40978217	      0.00000000	      0.00000000	     53.42196780	    -16.06095034	     22.55715658	     89.62627685	     50.68983721	      0.00000000	      0.00000000
      7.53000000	    -29.25247708	      5.05260377	     -7.80959505	      0.31453168	      1.16368956	     -0.27729759	      0.00000000	      0.50000000	      0.00000000	      0.25000000	     57.26615911	     -2.67632640	      5.03543580	     46.28789406	      0.80787616	     -1.38220718	     -8.08223842	      0.00000000	      0.00000000	     59.40532047	     -2.50475787	      0.08617128	     82.86890089	      1.44633517	    -28.55066509	    -10.20799094	      0.00000000	      0.00000000	    -62.27357427	     -7.13223200	     10.99151013	     40.15964144	    -46.50415785	      7.50572796	    108.31936464	     52.38518366	      0.00000000	      0.00000000	     55.18392125	    -13.97341168	     25.24662409	     87.21903221	     50.68207780	      0.00000000	      0.00000000
